<svg xmlns="http://www.w3.org/2000/svg" viewBox="0 0 60.35 77.036">
  <defs>
    <style>
      .cls-1 {
        fill: #c5f3fc;
      }

      .cls-2 {
        fill: #f3f8f9;
      }

      .cls-3 {
        fill: #ededed;
      }
    </style>
  </defs>
  <g id="T_U" data-name="T U" transform="translate(-323.33 -120)">
    <g id="T" transform="translate(323.722 120)">
      <path id="Path_130" data-name="Path 130" class="cls-1" d="M439.1,313a51.464,51.464,0,0,0,13.526,1.083c8.228-.3,11.944,1.782,11.944,1.782l4.4,2.827V338s-4.319-5.37-8.346-6.194-15.919-.713-15.919-.713l-5.609-.751Z" transform="translate(-439.097 -313)"/>
      <path id="Path_131" data-name="Path 131" class="cls-1" d="M468.917,313a51.368,51.368,0,0,1-13.5,1.081c-8.213-.3-11.923,1.779-11.923,1.779l-4.4,2.821V337.95s4.312-5.36,8.331-6.183,15.89-.712,15.89-.712l5.6-.749Z" transform="translate(-409.402 -313)"/>
    </g>
    <g id="U" transform="translate(323.33 143.281)">
      <path id="Path_132" data-name="Path 132" class="cls-2" d="M438.44,467.919h14.088s5.528-.19,5.541,5.506,0,46.516,0,46.516-12.209-6.007-16.43-14.6a31.66,31.66,0,0,1-2.941-10.255,41.146,41.146,0,0,1-.259-8.542Z" transform="translate(-438.33 -467.918)"/>
      <path id="Path_133" data-name="Path 133" class="cls-3" d="M527.287,580.548s1.877,9.1,9.729,9.1,9.964-5.357,9.964-5.357l1.175-3.341,0,26.492s-6.063,1.975-10.447,1.869a50.928,50.928,0,0,1-10.434-1.869Z" transform="translate(-507.541 -555.556)"/>
      <path id="Path_134" data-name="Path 134" class="cls-2" d="M457.965,467.919H443.877s-5.528-.19-5.542,5.506,0,46.516,0,46.516,12.209-6.007,16.43-14.6a31.66,31.66,0,0,0,2.94-10.255,41.141,41.141,0,0,0,.259-8.542Z" transform="translate(-397.726 -467.918)"/>
    </g>
  </g>
</svg>
