<svg xmlns="http://www.w3.org/2000/svg" xmlns:xlink="http://www.w3.org/1999/xlink" viewBox="0 0 741.83 525.359">
  <defs>
    <style>
      .cls-1, .cls-6 {
        fill: #6bafb1;
      }

      .cls-1, .cls-21, .cls-4, .cls-9 {
        opacity: 0.1;
      }

      .cls-2 {
        fill: url(#linear-gradient);
      }

      .cls-21, .cls-3 {
        fill: #fff;
      }

      .cls-5 {
        fill: #cf6f80;
      }

      .cls-7 {
        fill: #3f3d56;
      }

      .cls-8 {
        fill: #512e4e;
      }

      .cls-10 {
        fill: #535461;
      }

      .cls-11 {
        fill: #9d9cb5;
      }

      .cls-12 {
        fill: none;
        stroke: #535461;
        stroke-miterlimit: 10;
        stroke-width: 2px;
      }

      .cls-13 {
        fill: url(#linear-gradient-2);
      }

      .cls-14 {
        fill: #1d2366;
      }

      .cls-15 {
        fill: #ffb0b1;
      }

      .cls-16 {
        fill: #c7daf5;
      }

      .cls-17 {
        opacity: 0.03;
      }

      .cls-18 {
        fill: #dce7ff;
      }

      .cls-19 {
        fill: #591d4b;
      }

      .cls-20 {
        fill: #be8b87;
      }

      .cls-22 {
        fill: #efc8c4;
      }

      .cls-23 {
        fill: #727a9c;
      }
    </style>
    <linearGradient id="linear-gradient" x1="0.5" y1="1" x2="0.5" gradientUnits="objectBoundingBox">
      <stop offset="0" stop-color="gray" stop-opacity="0.251"/>
      <stop offset="0.54" stop-color="gray" stop-opacity="0.122"/>
      <stop offset="1" stop-color="gray" stop-opacity="0.102"/>
    </linearGradient>
    <linearGradient id="linear-gradient-2" x1="0.5" y1="1" x2="0.5" y2="0" xlink:href="#linear-gradient"/>
  </defs>
  <g id="undraw_medicine_b1ol" transform="translate(0.005 0.006)">
    <ellipse id="Ellipse_1" data-name="Ellipse 1" class="cls-1" cx="65.399" cy="10.504" rx="65.399" ry="10.504" transform="translate(181.335 504.05)"/>
    <ellipse id="Ellipse_2" data-name="Ellipse 2" class="cls-1" cx="81.608" cy="10.504" rx="81.608" ry="10.504" transform="translate(520.626 504.345)"/>
    <path id="Path_1" data-name="Path 1" class="cls-1" d="M60.4,396.83h68.117v92.843H65.383c-.168.953-.329,1.913-.5,2.873h63.634v74.876c-.114-.034-.215-.074-.322-.114-1.8-.711-3.584-1.463-5.369-2.268l-1.141-.517q-2.685-1.268-5.369-2.685c-.624-.329-1.248-.671-1.866-1.02A111.7,111.7,0,0,1,87.679,539.9c-.228-.222-.443-.456-.671-.671-1.087-1.181-2.154-2.376-3.188-3.6l-1.141-1.342c-1.222-1.5-2.4-3.034-3.551-4.591-.168-.228-.329-.456-.5-.671a99.926,99.926,0,0,1-11.544-20.873c-.094-.222-.174-.463-.262-.671q-1.383-3.557-2.45-7.182c-.309-1.013-.6-2.013-.859-3.067-.094-.309-.174-.611-.248-.913C59.45,481.445,59,465.988,59,450.638v-5.369c0-6.208.074-12.457.181-18.7,0-1.618.067-3.228.1-4.853q.141-6.182.4-12.363c.04-1.148.094-2.289.154-3.43a19.426,19.426,0,0,1,.1-1.973C60.1,401.562,60.235,399.193,60.4,396.83Z" transform="translate(-50.949 -169.841)"/>
    <path id="Path_2" data-name="Path 2" class="cls-1" d="M144.264,219.674H106.9a283.243,283.243,0,0,1,19.874-27.357c5.551-6.819,11.41-13.464,17.491-19.867Z" transform="translate(-66.7 -96.059)"/>
    <path id="Path_3" data-name="Path 3" class="cls-1" d="M129.3,247.09v97.629H61.4c0-.282.047-.57.067-.852.06-.772.121-1.544.188-2.309.074-.9.154-1.805.242-2.685s.181-1.953.282-2.926.195-1.96.309-2.933.215-1.946.336-2.913.228-1.946.356-2.913c.1-.805.208-1.6.315-2.41.154-1.134.315-2.275.49-3.4a3.136,3.136,0,0,1,.074-.5,232.155,232.155,0,0,1,5-24.511,181.271,181.271,0,0,1,8.423-24.833,186.423,186.423,0,0,1,12.672-24.4Z" transform="translate(-51.738 -120.603)"/>
    <path id="Path_4" data-name="Path 4" class="cls-1" d="M186.8,285.612v92.85H332.29v-92.85Zm0,95.716v79.735c.832.175,1.658.342,2.477.483,1.114.215,2.222.409,3.356.577.215.034.436.067.671.087.443.074.9.134,1.342.195,1.121.154,2.235.282,3.356.383.53.054,1.067.1,1.6.141l1.3.1h0c.7.054,1.4.094,2.094.114.43,0,.859.04,1.3.054h4.785c.577,0,1.154,0,1.725-.054h.04a9.045,9.045,0,0,0,1.2-.054,2.81,2.81,0,0,0,.336,0,6.942,6.942,0,0,0,.993-.047h.235l2.248-.175c.738-.067,1.483-.154,2.235-.235l1.53-.181a133.866,133.866,0,0,0,18.424-3.92c13.571-3.785,26.847-9.081,40.411-12.96,17.538-5,36.915-7.457,53.862-1.342v-62.9ZM332.29,182.245V58.635a187.036,187.036,0,0,0-47.271,5.544c-36.841,9.255-69.9,29.33-98.22,54.969v63.09h7.3V185.1h-7.3v97.642H332.29V185.111H224.084v-2.866Zm186.875-41.754a60.263,60.263,0,0,1-26.37-7.665c-15.672-8.524-28.189-21.686-42.177-32.794-29.062-23.135-65.1-37.1-102.079-40.559V182.245H556.234l.517-.544Zm18.92-3.356,20.061,22.015V131.363c-6.719.832-12.6,2.812-20.035,5.745Zm20.061,343.728V381.328H515.4c-.114-.423-.228-.852-.362-1.282.128.43.235.859.356,1.282H348.566v71.983c1.584,1.175,3.148,2.41,4.7,3.665h0c1.671,1.342,3.322,2.759,4.98,4.148l1.671,1.383c.8.671,1.6,1.342,2.416,1.973q2.416,1.96,4.879,3.866c.812.671,1.644,1.275,2.47,1.906a336.412,336.412,0,0,0,41.364,27.055q4.853,2.685,9.792,5.242c2.195,1.121,4.4,2.235,6.618,3.316q4.994,2.436,10.068,4.7h0a369.711,369.711,0,0,0,97.991,28.545q11.269,1.664,22.625,2.618V480.857h.671ZM348.566,185.111v97.636H558.174V185.111Zm0,100.5v92.85H558.174v-92.85Zm225.877-154.37v30.995l25.605-28.1q-12.725-2.054-25.605-2.933Zm0,154.4v92.817H778.312v-92.85ZM777.567,488.233l.718-106.9H574.443V542.793a365.589,365.589,0,0,0,39.4-.47h.228q9.4-.591,18.706-1.718h.141a344.476,344.476,0,0,0,96.112-25.645M817.623,300.9c-.765-1.805-1.564-3.6-2.376-5.369-1.517-3.356-3.121-6.618-4.772-9.88H794.568v92.81h40.217c-.02-26.283-6.671-53.13-17.142-77.594Zm-23.055,80.46v91.951a131.724,131.724,0,0,0,27.793-37.485c8.289-17.1,12.081-35.619,12.39-54.479Zm0-122.771v24.162h14.417a261.757,261.757,0,0,0-14.4-24.2ZM656.306,149.458c-1.06-.4-2.121-.812-3.188-1.208A291.034,291.034,0,0,0,618.68,137.9l-39.183,43h0l-.752.8.5.55H718.705a298.274,298.274,0,0,0-62.379-32.827Zm66.487,35.686H577.3l-2.859,2.618v94.985h203.9V236.737a290.485,290.485,0,0,0-55.526-51.627Z" transform="translate(-92.973 -58.63)"/>
    <path id="Path_5" data-name="Path 5" class="cls-1" d="M129.3,320.46v48.385H61.4c0-.282.047-.57.067-.852.06-.772.121-1.544.188-2.309.074-.9.154-1.805.242-2.685s.181-1.953.282-2.926.195-1.96.309-2.933.215-1.946.336-2.913.228-1.946.356-2.913c.1-.805.208-1.6.315-2.41.154-1.134.315-2.275.49-3.4a3.137,3.137,0,0,1,.074-.5,232.158,232.158,0,0,1,5-24.511Z" transform="translate(-51.738 -144.729)"/>
    <path id="Path_6" data-name="Path 6" class="cls-1" d="M60.4,396.83h68.117v92.843H65.383c-.168.953-.329,1.913-.5,2.873h63.634v74.876c-.114-.034-.215-.074-.322-.114-1.8-.711-3.584-1.463-5.369-2.268l-1.141-.517q-2.685-1.268-5.369-2.685c-.624-.329-1.248-.671-1.866-1.02A111.7,111.7,0,0,1,87.679,539.9c-.228-.222-.443-.456-.671-.671-1.087-1.181-2.154-2.376-3.188-3.6l-1.141-1.342c-1.222-1.5-2.4-3.034-3.551-4.591-.168-.228-.329-.456-.5-.671a99.926,99.926,0,0,1-11.544-20.873c-.094-.222-.174-.463-.262-.671q-1.383-3.557-2.45-7.182c-.309-1.013-.6-2.013-.859-3.067-.094-.309-.174-.611-.248-.913C59.45,481.445,59,465.988,59,450.638v-5.369c0-6.208.074-12.457.181-18.7,0-1.618.067-3.228.1-4.853q.141-6.182.4-12.363c.04-1.148.094-2.289.154-3.43a19.426,19.426,0,0,1,.1-1.973C60.1,401.562,60.235,399.193,60.4,396.83Z" transform="translate(-50.949 -169.841)"/>
    <path id="Path_7" data-name="Path 7" class="cls-1" d="M190.777,195.4v83.655H139.56V195.4h7.3V167.08h29.975V195.4Z" transform="translate(-45.733 -54.942)"/>
    <rect id="Rectangle_1" data-name="Rectangle 1" class="cls-1" width="51.211" height="92.843" transform="translate(93.834 226.982)"/>
    <path id="Path_8" data-name="Path 8" class="cls-1" d="M186.8,539.44h51.217v77.185a133.632,133.632,0,0,1-18.424,3.913l-1.53.188c-.752.087-1.5.161-2.235.235s-1.5.128-2.248.174h-.235c-.322,0-.671.04-.987.047h-.342c-.4,0-.805.04-1.208.054h0c-.571.033-1.141.04-1.725.047h-4.752l-1.3-.047c-.671,0-1.4-.074-2.094-.121h0l-1.289-.094-1.6-.148c-1.128-.1-2.248-.228-3.356-.383l-1.342-.188-.671-.094c-1.121-.175-2.228-.362-3.356-.577-.826-.141-1.644-.316-2.477-.483Z" transform="translate(-92.973 -216.735)"/>
    <rect id="Rectangle_2" data-name="Rectangle 2" class="cls-1" width="42.23" height="93.528" transform="translate(422.971 130.582)"/>
    <path id="Path_9" data-name="Path 9" class="cls-1" d="M590.194,338.19v92.85H380.58V390.991H492.23v23.625h55.728V338.19Z" transform="translate(-124.987 -111.208)"/>
    <path id="Path_10" data-name="Path 10" class="cls-1" d="M638.1,638.36h-.671V699.27q-11.343-.96-22.619-2.611a369.73,369.73,0,0,1-98.032-28.606q-13.511-6.081-26.471-13.276a337.786,337.786,0,0,1-41.371-27.055q-4.94-3.785-9.752-7.745c-2.222-1.832-4.43-3.712-6.665-5.537-1.55-1.255-3.114-2.49-4.7-3.671V538.812H594.64c-.114-.43-.228-.859-.349-1.282.128.423.248.852.362,1.282h42.774V638.32C637.656,638.327,637.877,638.347,638.1,638.36Z" transform="translate(-172.227 -216.107)"/>
    <path id="Path_11" data-name="Path 11" class="cls-1" d="M890.738,226.142H863.22v-8.551h12.336V192.12q1.6.584,3.195,1.2v24.27h11.987Z" transform="translate(-315.398 -102.527)"/>
    <path id="Path_12" data-name="Path 12" class="cls-1" d="M924.529,344.719H789.435l.047.034-.06-.034H764.36V251.191h7.1v69.131h32.451V279.38h26.807V247.09h27.518v32.317h26.807v40.942h39.485Z" transform="translate(-282.89 -120.603)"/>
    <path id="Path_13" data-name="Path 13" class="cls-1" d="M764.36,396.82v92.85H924.529V396.82ZM968.008,598.964l.221-73.494h-43.7V492.583H764.36V654a365.6,365.6,0,0,0,39.4-.47h.228q9.4-.591,18.706-1.718h.141a344.476,344.476,0,0,0,96.112-25.646" transform="translate(-282.89 -169.838)"/>
    <path id="Path_14" data-name="Path 14" class="cls-1" d="M1095.189,539.44h37.364c-.329,18.853-4.114,37.371-12.4,54.472A131.768,131.768,0,0,1,1092.37,631.4V572.334h2.819Z" transform="translate(-390.748 -216.735)"/>
    <path id="Path_15" data-name="Path 15" class="cls-1" d="M1133.954,497.144H1096.57V419.55H1116.8C1127.27,444.014,1133.921,470.861,1133.954,497.144Z" transform="translate(-392.129 -177.312)"/>
    <rect id="Rectangle_3" data-name="Rectangle 3" class="cls-1" width="22.625" height="29.324" transform="translate(442.582 156.583)"/>
    <rect id="Rectangle_4" data-name="Rectangle 4" class="cls-1" width="22.625" height="6.752" transform="translate(442.582 217.364)"/>
    <rect id="Rectangle_5" data-name="Rectangle 5" class="cls-1" width="22.625" height="19.699" transform="translate(442.582 226.982)"/>
    <rect id="Rectangle_6" data-name="Rectangle 6" class="cls-1" width="22.625" height="29.324" transform="translate(442.582 278.146)"/>
    <rect id="Rectangle_7" data-name="Rectangle 7" class="cls-1" width="22.625" height="29.324" transform="translate(442.582 338.927)"/>
    <path id="Path_16" data-name="Path 16" class="cls-1" d="M729.039,676.674a3.712,3.712,0,0,1,.671.04h-.671v6.812H706.42V654.17h22.619Z" transform="translate(-263.838 -254.461)"/>
    <path id="Path_17" data-name="Path 17" class="cls-1" d="M729.039,744.71v22.652q-11.343-.96-22.619-2.611V744.71Z" transform="translate(-263.838 -284.233)"/>
    <rect id="Rectangle_8" data-name="Rectangle 8" class="cls-1" width="96.964" height="2.154" transform="translate(255.593 317.678)"/>
    <rect id="Rectangle_9" data-name="Rectangle 9" class="cls-1" width="96.964" height="8.255" transform="translate(255.593 322.698)"/>
    <rect id="Rectangle_10" data-name="Rectangle 10" class="cls-1" width="96.964" height="13.276" transform="translate(255.593 358.016)"/>
    <path id="Path_18" data-name="Path 18" class="cls-1" d="M527.076,652.15v13.276H451.234q-4.94-3.772-9.759-7.745c-2.222-1.832-4.423-3.712-6.665-5.531Z" transform="translate(-174.525 -253.797)"/>
    <path id="Path_19" data-name="Path 19" class="cls-1" d="M555.392,712.23v13.262h-8.007q-13.5-6.088-26.464-13.282Z" transform="translate(-202.841 -273.546)"/>
    <rect id="Rectangle_11" data-name="Rectangle 11" class="cls-1" width="19.088" height="19.088" transform="translate(520.875 235.983)"/>
    <rect id="Rectangle_12" data-name="Rectangle 12" class="cls-1" width="19.088" height="19.088" transform="translate(107.579 147.045)"/>
    <rect id="Rectangle_13" data-name="Rectangle 13" class="cls-1" width="19.088" height="19.088" transform="translate(107.579 191.383)"/>
    <rect id="Rectangle_14" data-name="Rectangle 14" class="cls-1" width="19.088" height="19.088" transform="translate(107.579 235.721)"/>
    <rect id="Rectangle_15" data-name="Rectangle 15" class="cls-1" width="19.088" height="19.088" transform="translate(107.579 280.052)"/>
    <rect id="Rectangle_16" data-name="Rectangle 16" class="cls-1" width="19.088" height="19.088" transform="translate(107.579 324.39)"/>
    <rect id="Rectangle_17" data-name="Rectangle 17" class="cls-1" width="19.088" height="19.088" transform="translate(107.579 368.727)"/>
    <rect id="Rectangle_18" data-name="Rectangle 18" class="cls-1" width="19.088" height="19.088" transform="translate(593.744 235.983)"/>
    <rect id="Rectangle_19" data-name="Rectangle 19" class="cls-1" width="19.088" height="19.088" transform="translate(520.875 283.066)"/>
    <rect id="Rectangle_20" data-name="Rectangle 20" class="cls-1" width="19.088" height="19.088" transform="translate(593.744 283.066)"/>
    <rect id="Rectangle_21" data-name="Rectangle 21" class="cls-1" width="19.088" height="19.088" transform="translate(520.875 330.142)"/>
    <rect id="Rectangle_22" data-name="Rectangle 22" class="cls-1" width="19.088" height="19.088" transform="translate(593.744 330.142)"/>
    <rect id="Rectangle_23" data-name="Rectangle 23" class="cls-1" width="19.088" height="19.088" transform="translate(520.875 377.224)"/>
    <rect id="Rectangle_24" data-name="Rectangle 24" class="cls-1" width="19.088" height="19.088" transform="translate(593.744 377.224)"/>
    <rect id="Rectangle_25" data-name="Rectangle 25" class="cls-1" width="19.088" height="19.088" transform="translate(520.875 424.307)"/>
    <rect id="Rectangle_26" data-name="Rectangle 26" class="cls-1" width="19.088" height="19.088" transform="translate(593.744 424.307)"/>
    <path id="Path_20" data-name="Path 20" class="cls-1" d="M775.83,714.639V702.33h19.081v10.558Z" transform="translate(-254.955 -230.946)"/>
    <path id="Path_21" data-name="Path 21" class="cls-1" d="M65.24,357v10.92h65.325V357Zm6.51,10.235H66.421v-9.564h5.369Zm6.5,0H72.885v-9.564h5.369Zm6.49,0H79.375v-9.564h5.369Zm6.5,0H85.885v-9.564h5.369Zm6.5,0H92.376v-9.564h5.369Zm6.5,0H98.879v-9.564h5.369Zm6.5,0h-5.369v-9.564h5.369Zm6.5,0H111.88v-9.564h5.369Zm6.5,0h-5.369v-9.564h5.369Zm6.5,0h-5.369v-9.564h5.369Z" transform="translate(-53.001 -156.744)"/>
    <path id="Path_22" data-name="Path 22" class="cls-1" d="M65.24,404.34v10.92h65.325V404.34Zm6.51,10.229H66.421v-9.537h5.369Zm6.5,0H72.885v-9.537h5.369Zm6.49,0H79.375v-9.537h5.369Zm6.5,0H85.885v-9.537h5.369Zm6.5,0H92.376v-9.537h5.369Zm6.5,0H98.879v-9.537h5.369Zm6.5,0h-5.369v-9.537h5.369Zm6.5,0H111.88v-9.537h5.369Zm6.5,0h-5.369v-9.537h5.369Zm6.5,0h-5.369v-9.537h5.369Z" transform="translate(-53.001 -172.311)"/>
    <path id="Path_23" data-name="Path 23" class="cls-1" d="M65.24,451.7v10.94h65.325V451.7Zm6.51,10.229H66.421v-9.544h5.369Zm6.5,0H72.885v-9.544h5.369Zm6.49,0H79.375v-9.544h5.369Zm6.5,0H85.885v-9.544h5.369Zm6.5,0H92.376v-9.544h5.369Zm6.5,0H98.879v-9.544h5.369Zm6.5,0h-5.369v-9.544h5.369Zm6.5,0H111.88v-9.544h5.369Zm6.5,0h-5.369v-9.544h5.369Zm6.5,0h-5.369v-9.544h5.369Z" transform="translate(-53.001 -187.884)"/>
    <path id="Path_24" data-name="Path 24" class="cls-1" d="M65.24,499.06v10.907h65.325V499.06Zm6.51,10.229H66.421v-9.551h5.369Zm6.5,0H72.885v-9.551h5.369Zm6.49,0H79.375v-9.551h5.369Zm6.5,0H85.885v-9.551h5.369Zm6.5,0H92.376v-9.551h5.369Zm6.5,0H98.879v-9.551h5.369Zm6.5,0h-5.369v-9.551h5.369Zm6.5,0H111.88v-9.551h5.369Zm6.5,0h-5.369v-9.551h5.369Zm6.5,0h-5.369v-9.551h5.369Z" transform="translate(-53.001 -203.457)"/>
    <path id="Path_25" data-name="Path 25" class="cls-1" d="M65.66,546.41c.262,1.027.557,2.054.866,3.067v-2.383H71.9v9.544H69.023c.087.221.175.463.262.671H130.7v-10.9Zm12.752,10.229H73.043v-9.544h5.369Zm6.49,0H79.533v-9.544H84.9Zm6.5,0H86.023v-9.544h5.369Zm6.5,0H92.534v-9.544H97.9Zm6.5,0H99.037v-9.544h5.369Zm6.5,0h-5.369v-9.544h5.369Zm6.5,0h-5.369v-9.544h5.369Zm6.5,0h-5.369v-9.544H123.9Zm6.5,0h-5.369v-9.544H130.4Z" transform="translate(-53.139 -219.027)"/>
    <path id="Path_26" data-name="Path 26" class="cls-1" d="M88.26,593.77c.168.215.329.456.5.671h3.551v4.584c.383.456.758.913,1.148,1.342v-5.953h5.369v9.578H96.656c.215.222.423.456.671.671h40.828V593.77Zm17.055,10.222H99.945v-9.537h5.369Zm6.5,0h-5.369v-9.537h5.369Zm6.5,0h-5.369v-9.537h5.369Zm6.5,0h-5.369v-9.537h5.369Zm6.5,0h-5.369v-9.537h5.369Zm6.5,0h-5.369v-9.537h5.369Z" transform="translate(-60.571 -234.6)"/>
    <path id="Path_27" data-name="Path 27" class="cls-1" d="M141.65,641.12c.611.349,1.235.671,1.866,1.02V641.8h5.369v3.02l1.141.53V641.8H155.4v5.806a1.693,1.693,0,0,0,.322.121V641.12Z" transform="translate(-78.127 -250.17)"/>
    <path id="Path_28" data-name="Path 28" class="cls-1" d="M603.109,343.3Zm-41.344,198.09ZM518.628,440.6c.128.43.235.859.356,1.282h0C518.877,441.461,518.763,441.031,518.628,440.6Zm84.481-97.32ZM197.72,242.78v2.866H227.7V242.78ZM561.765,541.392ZM518.628,440.6c.128.43.235.859.356,1.282h0C518.877,441.461,518.763,441.031,518.628,440.6Zm84.481-97.32Zm-41.344,198.09ZM518.628,440.6c.128.43.235.859.356,1.282h0C518.877,441.461,518.763,441.031,518.628,440.6Z" transform="translate(-96.564 -119.185)"/>
    <path id="Path_29" data-name="Path 29" class="cls-2" d="M438.728,365.912s-2.644-.369-2.644-4.222-1.893-11.047-1.893-11.047h0c0-.034-1.638-12.531-3.9-14.517s-5.168-13.652-5.168-13.652-.5-6.329-1.51-7.692-2.383-4.7-4.4-9.457-10.443-8.054-10.443-8.054-15.229-8.833-19.545-11.712h0a6.618,6.618,0,0,1-1.094-.826c-.752-.987-4.027-1.007-4.027-1.007a66,66,0,0,1-.779-6.893,5.245,5.245,0,0,0-.034-.725A23.223,23.223,0,0,0,393.5,263.477c.081-.255.148-.524.221-.779a2.181,2.181,0,0,0,1.309-1.181,24.634,24.634,0,0,1,.879-2.685,10.111,10.111,0,0,1,2.483-2.181c2.134-1.812,2.685-4.866,2.584-7.645-.067-2.248-.43-4.517-.289-6.752l.04-.564c.04-.336.087-.671.148-.993.329-1.665,1.047-3.235,1.45-4.886a6.286,6.286,0,0,0-.5-4.933c-1.376-2.087-4.242-2.5-6.759-2.718-2.852-.242-5.4.074-7.229-2.3a25.761,25.761,0,0,0-2.873-3.47c-.376-.349-4.027-2.577-4.027-2.725a16.316,16.316,0,0,0-11.376-.872c-1.893.55-3.678,1.45-5.6,1.9-4.141.98-8.906-.081-12.423,2.289-1.96,1.342-3.134,3.477-4.235,5.557q-1.342,2.571-2.725,5.134a33.26,33.26,0,0,0-3.618,8.786,13.942,13.942,0,0,0-.242,2.054h0v1.094a3.611,3.611,0,0,0,.04.671c.04.208.034.275.054.416s.054.456.094.671.121.591.2.886c.034.128.081.248.121.369.067.228.148.45.235.671.047.114.094.235.148.349a6.275,6.275,0,0,0,.342.671c.054.094.094.181.148.268a8.9,8.9,0,0,0,.617.9c1.436,1.792,3.551,2.933,5.114,4.611v.752a22.974,22.974,0,0,0,10.457,18.759c0,.255.034.517.047.772a38.407,38.407,0,0,1-.074,5.98,2.819,2.819,0,0,0-2.228-.993,3.217,3.217,0,0,0-.859.074l-.06-.047h0v.06c-1.477.362-3.3,1.9-5.034,6.269,0,0-5.289,5.96-9.316,5.712s-14.222,6.2-14.222,6.2-9.947,6.457-12.081,13.034a91.849,91.849,0,0,1-4.282,10.927l-12.3,25.337h0l-2.269,20.1s1.255,8.94,1.007,10.3,5.161,13.652,5.161,13.652,17.873,31.4,25.176,33.015l.524-.369a4.283,4.283,0,0,0,.987.369l1.5-1.06a16.381,16.381,0,0,1-.114,3.544c-1.007,3.1.376,23.337,2.134,27.3s1.134,55.976,1.134,55.976l-.248,4.591a1.945,1.945,0,0,0,.06.4l-.06,1.087.181.094a12.927,12.927,0,0,1-.181,4.369c-.631,2.013-.886,7.705-.886,7.705s-5.027,32.136-2.644,38.592,4.41,13.531,4.41,13.531,2.517,8.054.121,9.43-9.208,3.685-7.806,7.041c1.275,3.1,6.114,11.41,6.833,12.625l-.06.638-.987,10.692A13.423,13.423,0,0,0,333,626.643a7.032,7.032,0,0,0,7.175,4.483c.671-.047,1.45-.128,2.2-.228a95.14,95.14,0,0,0,16.31-4.242,6.648,6.648,0,0,1-1.275-1.054h0a3.685,3.685,0,0,1-1.121-2.685c.107-1.946-3.537-11.222-4.443-13.5-.141-.329-.215-.517-.215-.517s8.309-8.685,6.926-16.383c0,0-9.2-5.369-6.168-8.316s8.437-11.41,8.437-11.41.248-31.646,0-36.371a39.128,39.128,0,0,1,.463-9.819c.1-.49.221-.966.349-1.436a87.6,87.6,0,0,0,12.645.96c1.544,0,3.114,0,4.7-.094q0,.671.06,1.45c.349,7.839,1,21.585,1.53,26.693.752,7.323,4.906,27.055,4.906,27.055s-7.927,5.087,1.383,17.625c0,0,0,4.544-.618,5.2h0a56.907,56.907,0,0,0-1.591,6.551c-.389,2.363-.55,4.752.08,5.994,1.51,2.967,10.571,2.725,10.571,2.725h0l.222-.04a12.988,12.988,0,0,1,9.591,2.893c3.443,2.765,16.511,1.55,23.585.671,2.772-.349,4.624-.671,4.624-.671a2.684,2.684,0,0,0,.094-.967h0c-.074-1.738-1.436-5.551-10.672-8.953,0,0-8.685-5.839-8.564-10.927h-1.188a9.449,9.449,0,0,1,1.2,0s-3.4-12.417-2.013-13.424-2.772-14.766-2.772-14.766-2.383-23.088-2.51-24.706a14.1,14.1,0,0,1,.624-4.094l-.624-12.658s-.121-4.208,0-5.577a27.84,27.84,0,0,0-.289-3.551c-.06-.47-.121-.96-.188-1.443,3.255-.826,5.369-1.591,5.369-1.591l-.376-44.063c2.765-5.369,3.275-17.148,3.262-25.5,0-5.369-.242-9.343-.242-9.343l3.779-6.168s.873-7.383-.51-9a1.549,1.549,0,0,1,.168-2.114,7.018,7.018,0,0,1,.826-.564s-.04-.06-.087-.148a6.666,6.666,0,0,1,.839-.6s-1.342-2.081-.141-2.96c1.128.765,2.134,1.342,2.9,1.812-.054.49-.107.772-.107.772l.322-.671c.738.416,1.188.671,1.188.671s5.92-11.793,5.792-13.531,4.027-9.061,4.027-9.061.5-3.846,2.772-5.457,1.758-13.283,1.758-13.283.631-6.081,2.141-8.564S438.728,365.912,438.728,365.912ZM325.46,360.737l.114,2.812-1.154-1.859Z" transform="translate(-128.756 -111.089)"/>
    <path id="Path_30" data-name="Path 30" class="cls-3" d="M479.145,505.082l-1.45,6.175S466.084,505.33,463.99,497.8s3.5-10.39,3.5-10.39l10.819,4.584Z" transform="translate(-183.966 -199.626)"/>
    <path id="Path_31" data-name="Path 31" class="cls-4" d="M479.145,505.082l-1.45,6.175S466.084,505.33,463.99,497.8s3.5-10.39,3.5-10.39l10.819,4.584Z" transform="translate(-183.966 -199.626)"/>
    <path id="Path_32" data-name="Path 32" class="cls-3" d="M376.84,814.871s-10.739,3.947-18.122,4.443c-3.92.262-5.98-2.141-7.041-4.457a13.488,13.488,0,0,1-1.107-4.06l.96-10.638.51-5.665,15.685-4.074,2.222,6.792.208.517c.893,2.269,4.47,11.5,4.363,13.423a3.664,3.664,0,0,0,1.1,2.651,6.379,6.379,0,0,0,1.221,1.067Z" transform="translate(-146.825 -299.264)"/>
    <path id="Path_33" data-name="Path 33" class="cls-3" d="M475.382,809.116a2.687,2.687,0,0,1-.094.96s-22.968,3.832-27.666,0a12.444,12.444,0,0,0-9.665-2.832s-8.886.242-10.37-2.685c-.617-1.228-.456-3.611-.074-5.96a56.8,56.8,0,0,1,1.557-6.517l.356-.282,2.114-1.7,24.753-.732h.188c-.121,5.061,8.4,10.866,8.4,10.866C473.939,803.592,475.275,807.384,475.382,809.116Z" transform="translate(-172.015 -298.918)"/>
    <path id="Path_34" data-name="Path 34" class="cls-4" d="M475.384,813.637a2.737,2.737,0,0,1-.1.96s-22.961,3.833-27.659,0a12.443,12.443,0,0,0-9.658-2.832s-8.893.242-10.37-2.685c-.618-1.235-.463-3.611-.081-5.96,3.423.342,8.826,1.195,10.947,3.228,3.208,3.094,8.645,6.182,11.98,6.423C453.054,812.939,468.672,813.436,475.384,813.637Z" transform="translate(-172.016 -303.44)"/>
    <path id="Path_35" data-name="Path 35" class="cls-4" d="M377.386,826.344s-10.739,3.946-18.122,4.443c-3.92.262-5.98-2.141-7.034-4.463,2.732.92,6.524,1.886,8.517,1,2.363-1.047,10.739-1.725,15.437-2.013a6.614,6.614,0,0,0,1.2,1.034Z" transform="translate(-147.371 -310.736)"/>
    <path id="Path_36" data-name="Path 36" class="cls-5" d="M404.7,333.27c-8.859-3.443-20.256-14.819-17.41-20.135a11.892,11.892,0,0,0,1.107-4.269,38.972,38.972,0,0,0,.081-6.041A82.728,82.728,0,0,0,387.292,293s27.659.624,26.048,4.7a15.231,15.231,0,0,0-.416,5.591c.128,2.322.463,4.947.812,7.168.483,3.047.966,5.369.966,5.369s-1.691,2.369-2.685,2.5S417.414,338.177,404.7,333.27Z" transform="translate(-158.754 -135.699)"/>
    <path id="Path_37" data-name="Path 37" class="cls-4" d="M370.6,797.729l-.208.228c-8.269-10-18.269,2.463-18.269,2.463l-.148-.262.51-5.665,15.685-4.074,2.222,6.792Z" transform="translate(-147.285 -299.264)"/>
    <path id="Path_38" data-name="Path 38" class="cls-4" d="M457.424,790.062s-6.041-.128-9.262,2.718-18.793.618-18.122,0a2.208,2.208,0,0,0,.349-1.02l2.114-1.7,24.753-.732C457.35,789.78,457.424,790.062,457.424,790.062Z" transform="translate(-172.95 -298.905)"/>
    <path id="Path_39" data-name="Path 39" class="cls-6" d="M377.537,666.916a18.668,18.668,0,0,0-1.02,3.443,39.4,39.4,0,0,0-.463,9.772c.248,4.7,0,36.183,0,36.183s-5.309,8.4-8.269,11.356,6.041,8.276,6.041,8.276c1.342,7.651-6.792,16.3-6.792,16.3-8.269-10-18.269,2.47-18.269,2.47s-5.436-9.4-6.792-12.752,5.309-5.678,7.651-7.041-.114-9.4-.114-9.4-1.98-7.041-4.329-13.464,2.591-38.4,2.591-38.4a49.548,49.548,0,0,1,.866-7.658,12.808,12.808,0,0,0,.181-4.349c-.04-.49-.087-.9-.121-1.174s-.06-.4-.06-.4l.094-.161,3.356-6.255S379.148,662.976,377.537,666.916Z" transform="translate(-143.938 -254.293)"/>
    <path id="Path_40" data-name="Path 40" class="cls-6" d="M453.869,747.927s-6.041-.128-9.262,2.685-18.793.618-18.122,0,.617-5.188.617-5.188c-9.135-12.47-1.342-17.531-1.342-17.531s-4.081-19.632-4.819-26.914c-.517-5.087-1.154-18.759-1.5-26.565-.148-3.356-.235-5.665-.235-5.665l7.463-1.5.96-.195,18-3.611s.5,3.356.832,6.1a28.516,28.516,0,0,1,.282,3.537c-.121,1.342,0,5.544,0,5.544l.611,12.6a14.31,14.31,0,0,0-.611,4.074c.121,1.6,2.463,24.572,2.463,24.572s4.074,13.705,2.685,14.692S453.869,747.927,453.869,747.927Z" transform="translate(-169.396 -257.509)"/>
    <path id="Path_41" data-name="Path 41" class="cls-4" d="M413.558,297.7a15.233,15.233,0,0,0-.416,5.591,22.988,22.988,0,0,1-24.444-.456A82.719,82.719,0,0,0,387.51,293S415.169,293.611,413.558,297.7Z" transform="translate(-158.972 -135.699)"/>
    <path id="Path_42" data-name="Path 42" class="cls-5" d="M419.752,266.648a22.733,22.733,0,0,1-1.128,7.121A22.968,22.968,0,0,1,373.83,267.2v-.55a22.966,22.966,0,1,1,45.932,0Z" transform="translate(-154.473 -119.481)"/>
    <path id="Path_43" data-name="Path 43" class="cls-4" d="M404.7,341.044c-8.859-3.443-20.256-14.819-17.41-20.135a11.892,11.892,0,0,0,1.107-4.269l12.128,9.967,7.5,6.155,5.7-14.524c.483,3.047.966,5.369.966,5.369s-1.691,2.369-2.685,2.5S417.414,345.95,404.7,341.044Z" transform="translate(-158.754 -143.473)"/>
    <path id="Path_44" data-name="Path 44" class="cls-6" d="M384.75,325.94,374.622,496.083l-13.209.866-34.2-98.656,5.611-117.127L334,256.42l15.209,12.491,7.51,6.155,5.873-14.947,10.92,9.517Z" transform="translate(-107.437 -84.32)"/>
    <path id="Path_45" data-name="Path 45" class="cls-4" d="M380.894,666.942a18.675,18.675,0,0,0-1.02,3.443,97.318,97.318,0,0,1-27.693-8.651L352,661.64l.06-1.081.034-.564,3.356-6.255S382.5,663,380.894,666.942Z" transform="translate(-147.295 -254.32)"/>
    <path id="Path_46" data-name="Path 46" class="cls-4" d="M426.808,675.482a67.948,67.948,0,0,1-7.423.846c-.148-3.356-.235-5.665-.235-5.665l7.463-1.5Z" transform="translate(-169.376 -259.39)"/>
    <path id="Path_47" data-name="Path 47" class="cls-4" d="M450.533,669.591c-4.772,1.242-12.142,2.638-18.739,1.765L431.7,667.1l18-3.611S450.2,666.812,450.533,669.591Z" transform="translate(-173.503 -257.526)"/>
    <path id="Path_48" data-name="Path 48" class="cls-4" d="M389.024,557.543c-27.518,4.7-52.721-8.772-52.721-8.772l.242-4.564s.624-51.741-1.107-55.708-3.081-24.082-2.1-27.169-3.577-49.385-3.577-49.385l-.738-18.793L302,382.206l12.081-25.182a90.868,90.868,0,0,0,4.2-10.873c2.1-6.537,11.853-12.96,11.853-12.96s10-6.416,13.954-6.175,9.135-5.678,9.135-5.678c3.826-9.752,7.289-5.336,7.289-5.336a8.71,8.71,0,0,1-.188,1.443c-1.342,10.705,21.706,44.532,22.035,45.13h0l2.195,53.466,2.222,67.661Z" transform="translate(-130.854 -142.934)"/>
    <path id="Path_49" data-name="Path 49" class="cls-3" d="M387.915,557.524c-27.518,4.7-52.727-8.772-52.727-8.772l.248-4.564s.624-51.741-1.114-55.707-3.081-24.082-2.094-27.169-3.577-49.385-3.577-49.385l-.745-18.793L300.87,382.146l12.081-25.182a92.3,92.3,0,0,0,4.2-10.873c2.094-6.537,11.853-12.96,11.853-12.96s10-6.416,13.947-6.175,9.135-5.678,9.135-5.678c3.832-9.752,8.054-5.336,8.054-5.336,0,.463-.4.671-.188,1.443,2.953,10.383,20.967,44.532,21.3,45.13h0l2.222,53.466,2.222,67.661Z" transform="translate(-130.482 -142.915)"/>
    <path id="Path_50" data-name="Path 50" class="cls-4" d="M407.09,364.8c-2.96-1.235-18.638-19.135-18.638-19.135V341.59c-.57-1.342-3.96-.523-6.712.416l1.181-24.746,1.342,1.114C387.2,328.75,406.748,364.2,407.09,364.8Z" transform="translate(-157.074 -143.676)"/>
    <path id="Path_51" data-name="Path 51" class="cls-3" d="M408.2,362.589c-2.967-1.235-18.645-19.135-18.645-19.135V339.38c-.57-1.342-3.96-.524-6.712.416l1.188-24.746,1.342,1.114C388.317,326.54,407.868,362,408.2,362.589Z" transform="translate(-157.436 -142.95)"/>
    <path id="Path_52" data-name="Path 52" class="cls-4" d="M352.37,517.923c.369,0,19.135-1.973,19.135-1.973s11.363,22.343,10.618,27.78-2.094,10.249-6.665,9.4-24.6.671-24.6.671Z" transform="translate(-146.92 -209.011)"/>
    <path id="Path_53" data-name="Path 53" class="cls-3" d="M351.26,515.713c.369,0,19.135-1.973,19.135-1.973s11.356,22.35,10.618,27.78-2.1,10.249-6.665,9.4-24.6.671-24.6.671Z" transform="translate(-146.555 -208.284)"/>
    <path id="Path_54" data-name="Path 54" class="cls-5" d="M368.042,501.05s17.222,9.255,17.591,12.081-8.766-1.235-10.739-1.725a24.578,24.578,0,0,0-3.953-.617l-13.162.356Z" transform="translate(-149.196 -204.111)"/>
    <circle id="Ellipse_3" data-name="Ellipse 3" class="cls-4" cx="1.812" cy="1.812" r="1.812" transform="translate(243.398 218.653)"/>
    <circle id="Ellipse_4" data-name="Ellipse 4" class="cls-7" cx="1.812" cy="1.812" r="1.812" transform="translate(243.398 217.915)"/>
    <circle id="Ellipse_5" data-name="Ellipse 5" class="cls-4" cx="1.812" cy="1.812" r="1.812" transform="translate(246.734 297.1)"/>
    <circle id="Ellipse_6" data-name="Ellipse 6" class="cls-7" cx="1.812" cy="1.812" r="1.812" transform="translate(246.734 296.355)"/>
    <circle id="Ellipse_7" data-name="Ellipse 7" class="cls-4" cx="1.812" cy="1.812" r="1.812" transform="translate(245.203 257.876)"/>
    <circle id="Ellipse_8" data-name="Ellipse 8" class="cls-7" cx="1.812" cy="1.812" r="1.812" transform="translate(245.203 257.138)"/>
    <path id="Path_55" data-name="Path 55" class="cls-3" d="M460.714,450.5s1.235,1.852,0,2.718.121,2.96.121,2.96-3.081,1.806-1.725,3.43.5,8.96.5,8.96l-3.7,6.135s.222,3.953.235,9.3c0,8.336-.49,20.055-3.2,25.4l.376,43.834s-12.974,4.738-23.833,3.3l-1.611-70.339s2.349-39.888,3.215-47.539a79.653,79.653,0,0,0,.617-11.98s-.369-11.974-1.611-17.531c0,0-1.342-24.075-1.477-30.74-.06-3.188.107-12.491.3-21.337.208-9.672.443-18.793.443-18.793l-2.45-19.383s2.45-.248,3.188.738a7.065,7.065,0,0,0,1.074.826h0c4.228,2.859,19.169,11.652,19.169,11.652s8.269,3.289,10.249,8,3.356,8.054,4.316,9.4,1.483,7.651,1.483,7.651,2.846,11.611,5.067,13.578,3.846,14.477,3.846,14.477L455.66,400.642s-1.725,25.679-2.094,26.672S460.714,450.5,460.714,450.5Z" transform="translate(-171.924 -144.202)"/>
    <path id="Path_56" data-name="Path 56" class="cls-3" d="M461.436,450.4s1.228,1.852,0,2.718.114,2.96.114,2.96-3.061,1.826-1.718,3.45.5,8.96.5,8.96l-3.7,6.135s.221,3.953.242,9.3c0,8.336-.49,20.055-3.2,25.4l.369,43.834s-12.994,4.738-23.84,3.3l-1.6-70.339s2.349-39.888,3.215-47.539a78.926,78.926,0,0,0,.611-11.98s-.369-11.974-1.6-17.531c0,0-1.342-24.075-1.483-30.74-.06-3.188.114-12.491.3-21.337.208-9.672.443-18.793.443-18.793L426.83,318.54s3.235,0,3.98,1a6.369,6.369,0,0,0,1.074.826h0c4.228,2.859,19.175,11.652,19.175,11.652s8.262,3.289,10.242,8,3.356,8.054,4.322,9.4,1.477,7.651,1.477,7.651,2.846,11.611,5.067,13.578,3.826,14.45,3.826,14.45l-19.632,15.437s-1.725,25.679-2.1,26.672S461.436,450.4,461.436,450.4Z" transform="translate(-171.901 -144.097)"/>
    <path id="Path_57" data-name="Path 57" class="cls-4" d="M438.289,344.6l1.772,5.168-9.329,9.4c.208-9.665.443-18.793.443-18.793L427.94,320.73s3.235,0,3.98,1a6.12,6.12,0,0,0,1.074.819h0l7.933,22.887Z" transform="translate(-172.266 -144.817)"/>
    <path id="Path_58" data-name="Path 58" class="cls-3" d="M437.179,342.394l1.779,5.168-9.329,9.4c.208-9.672.443-18.793.443-18.793L426.83,318.52s3.242,0,3.98,1a6.709,6.709,0,0,0,1.074.826h0l7.94,22.88Z" transform="translate(-171.901 -144.091)"/>
    <path id="Path_59" data-name="Path 59" class="cls-4" d="M419.752,266.648a22.732,22.732,0,0,1-1.128,7.121.96.96,0,0,1-.725-.181c-.174-6.04-3.148-11.712-6.806-16.538a17.377,17.377,0,0,0-3.691-3.826,7.222,7.222,0,0,0-5.007-1.416c-2.014.275-3.792,1.644-5.826,1.819-2.685.221-5.087-1.638-7.752-1.732a7.618,7.618,0,0,0-5.7,2.644,15.631,15.631,0,0,0-3.054,5.665,33.142,33.142,0,0,0-1.7,9.772c-.034,1.879-.215,4.235-1.96,4.92a10.028,10.028,0,0,0-2.53-7.658l-.04-.04v-.55a22.966,22.966,0,1,1,45.932,0Z" transform="translate(-154.473 -119.481)"/>
    <path id="Path_60" data-name="Path 60" class="cls-8" d="M402.865,222.833a15.813,15.813,0,0,0-11.155-.873c-1.859.55-3.611,1.443-5.5,1.893-4.027.973-8.725-.081-12.182,2.275-1.92,1.342-3.074,3.463-4.148,5.524l-2.685,5.114a33.19,33.19,0,0,0-3.551,8.725c-.611,3.081-.242,6.531,1.712,9.007,1.423,1.805,3.524,2.94,5.067,4.638a10.067,10.067,0,0,1,2.524,7.651c1.752-.671,1.92-3.034,1.96-4.913a33.14,33.14,0,0,1,1.7-9.772,15.578,15.578,0,0,1,3.054-5.665,7.632,7.632,0,0,1,5.7-2.644c2.685.094,5.094,1.946,7.752,1.725,2.013-.168,3.8-1.544,5.826-1.812a7.2,7.2,0,0,1,5.007,1.416,17.2,17.2,0,0,1,3.685,3.826c3.665,4.826,6.638,10.484,6.812,16.538.758.557,1.852-.168,2.228-1.027a24.531,24.531,0,0,1,.866-2.685,9.9,9.9,0,0,1,2.43-2.161c2.094-1.805,2.618-4.846,2.537-7.6s-.617-5.557-.094-8.269c.315-1.665,1.027-3.222,1.416-4.866a6.363,6.363,0,0,0-.483-4.906c-1.342-2.081-4.168-2.49-6.631-2.685-2.8-.242-5.3.067-7.088-2.289a25.71,25.71,0,0,0-2.819-3.45C406.455,225.2,402.865,222.981,402.865,222.833Z" transform="translate(-151.037 -112.132)"/>
    <path id="Path_61" data-name="Path 61" class="cls-4" d="M309,428.1l-7.014-12.967-2.222,20.008s1.235,8.886.987,10.249,5.061,13.578,5.061,13.578,17.538,31.236,24.7,32.847l24.2-17.289-6.416-8.148s-2.222-.866-2.779,0c0,0-11.913-20.5-13.148-21.981s-.993-4.443-.993-4.443-1.852-1.973-1.235-3.826-3.577-8.276-3.577-8.276l3.826-3.577Z" transform="translate(-130.117 -175.859)"/>
    <path id="Path_62" data-name="Path 62" class="cls-3" d="M301.624,412.93l-1.852,1.477-2.222,20.008s1.235,8.886.987,10.249,5.067,13.578,5.067,13.578,17.531,31.236,24.693,32.847L352.5,473.8l-6.423-8.148s-2.222-.866-2.779,0c0,0-11.913-20.5-13.148-21.981s-.987-4.443-.987-4.443-1.852-1.973-1.235-3.826-3.584-8.276-3.584-8.276l3.826-3.577Z" transform="translate(-129.391 -175.135)"/>
    <path id="Path_63" data-name="Path 63" class="cls-4" d="M468.03,523.854c1.342,1.631.5,8.953.5,8.953l-3.7,6.135s.221,3.96.235,9.3l-6.228,1.946a3.7,3.7,0,0,1-4.8-3.645L455.1,511.9l14.531,5.557c-1.235.859.121,2.967.121,2.967S466.674,522.223,468.03,523.854Z" transform="translate(-180.844 -207.679)"/>
    <path id="Path_64" data-name="Path 64" class="cls-3" d="M469.137,522.747c1.342,1.631.5,8.96.5,8.96l-3.7,6.135s.221,3.953.242,9.3l-6.343,1.98a3.624,3.624,0,0,1-4.7-3.571L456.21,510.8l14.538,5.557c-1.242.859.114,2.96.114,2.96S467.794,521.123,469.137,522.747Z" transform="translate(-181.206 -207.317)"/>
    <path id="Path_65" data-name="Path 65" class="cls-5" d="M477.475,501.352s-.987,6.3-3.457,6.671-3.577,10.2-6.041,9.846-.832-9.135-.745-10.84-2.685-8.766-.611-10.37,8.638,0,8.638,0Z" transform="translate(-184.732 -202.434)"/>
    <path id="Path_66" data-name="Path 66" class="cls-4" d="M481.489,427.086l4.658-9.4S488,424.851,488,428.677s2.591,4.2,2.591,4.2,2.839,3.356,1.342,5.8-2.1,8.524-2.1,8.524.49,11.6-1.732,13.209-2.685,5.437-2.685,5.437-4.081,7.282-3.953,9.014-5.678,13.457-5.678,13.457,2.839-14.571-13.705-20.867c0,0-.128-4.947,1.107-6.3s3.161-1.973,1.953-8.826-.349-15.041-.349-16.685,3.7-11.9,3.7-11.9Z" transform="translate(-183.491 -176.7)"/>
    <path id="Path_67" data-name="Path 67" class="cls-3" d="M484.189,415.69l4.067,1.342s1.859,7.161,1.859,10.987,2.591,4.2,2.591,4.2,2.839,3.356,1.342,5.8-2.094,8.524-2.094,8.524.49,11.6-1.732,13.209-2.718,5.436-2.718,5.436-4.074,7.282-3.947,9.014-5.685,13.457-5.685,13.457,2.846-14.571-13.705-20.867c0,0-.121-4.947,1.114-6.3s3.161-1.973,1.953-8.826-.349-15.041-.349-16.685,3.7-11.9,3.7-11.9Z" transform="translate(-184.178 -176.043)"/>
    <path id="Path_68" data-name="Path 68" class="cls-4" d="M360.15,777.486s6.484-4.074,10.739-1.114S360.15,777.486,360.15,777.486Z" transform="translate(-149.975 -294.29)"/>
    <path id="Path_69" data-name="Path 69" class="cls-4" d="M435.21,759.772a13.125,13.125,0,0,1,10.558,4.45C450.587,769.41,435.21,759.772,435.21,759.772Z" transform="translate(-174.657 -289.174)"/>
    <g id="Group_1" data-name="Group 1" class="cls-9" transform="translate(212.346 123.944)">
      <path id="Path_70" data-name="Path 70" d="M424.689,268.374a9.958,9.958,0,0,0-2.436,2.168,24.565,24.565,0,0,0-.859,2.685c-.376.872-1.47,1.584-2.228,1.034-.174-6.041-3.154-11.712-6.812-16.544a17.2,17.2,0,0,0-3.685-3.826,7.215,7.215,0,0,0-5.014-1.416c-2.013.275-3.785,1.644-5.819,1.812-2.685.228-5.094-1.631-7.759-1.725a7.6,7.6,0,0,0-5.692,2.651,15.545,15.545,0,0,0-3.054,5.658,33.181,33.181,0,0,0-1.7,9.772c-.04,1.873-.215,4.208-1.946,4.906a9.193,9.193,0,0,1,0,1.49c1.745-.671,1.92-3.034,1.96-4.913a33.143,33.143,0,0,1,1.7-9.772,15.578,15.578,0,0,1,3.054-5.665,7.618,7.618,0,0,1,5.692-2.644c2.685.094,5.1,1.946,7.759,1.725,2.013-.168,3.8-1.544,5.819-1.812a7.215,7.215,0,0,1,5.014,1.416,17.2,17.2,0,0,1,3.685,3.826c3.658,4.826,6.638,10.484,6.812,16.538.758.557,1.852-.168,2.228-1.027a26.038,26.038,0,0,1,.859-2.685,9.933,9.933,0,0,1,2.436-2.161c2.094-1.805,2.618-4.846,2.537-7.6v-.255C427.112,264.394,426.474,266.831,424.689,268.374Z" transform="translate(-368.085 -246.306)"/>
      <path id="Path_71" data-name="Path 71" d="M370.442,270.508c-1.544-1.7-3.651-2.832-5.067-4.631a9.826,9.826,0,0,1-1.953-5.5,10.336,10.336,0,0,0,1.953,6.974c1.416,1.805,3.524,2.94,5.067,4.638a10.068,10.068,0,0,1,2.53,5.987,10.068,10.068,0,0,0-2.53-7.47Z" transform="translate(-363.385 -248.916)"/>
      <path id="Path_72" data-name="Path 72" d="M452.663,244.629c-.4,1.644-1.1,3.208-1.423,4.866a15.494,15.494,0,0,0-.208,3.356,13.038,13.038,0,0,1,.208-1.906c.322-1.665,1.027-3.222,1.423-4.866a8.256,8.256,0,0,0,.221-2.779A9.324,9.324,0,0,1,452.663,244.629Z" transform="translate(-392.2 -243.3)"/>
    </g>
    <ellipse id="Ellipse_9" data-name="Ellipse 9" class="cls-1" cx="65.399" cy="10.504" rx="65.399" ry="10.504" transform="translate(23.844 489.478)"/>
    <rect id="Rectangle_27" data-name="Rectangle 27" class="cls-10" width="4.208" height="94.75" transform="translate(87.142 298.764)"/>
    <path id="Path_73" data-name="Path 73" class="cls-7" d="M194.539,641.36l-.262,4.269-.376,6.041-.154,2.51-.369,6.041-.161,2.51-.376,6.041L188.6,737.277a11.611,11.611,0,0,1-11.584,10.886H154.959a11.6,11.6,0,0,1-11.578-10.886l-4.222-68.554-.376-6.041-.154-2.51-.376-6.041-.154-2.51-.376-6.041-.268-4.269a6.04,6.04,0,0,1,6.041-6.383h45.11a6,6,0,0,1,5.933,6.43Z" transform="translate(-76.744 -248.135)"/>
    <path id="Path_74" data-name="Path 74" class="cls-11" d="M147.16,592.24l-.376,6.02H90.956l-.376-6.02Z" transform="translate(-29.627 -194.746)"/>
    <path id="Path_75" data-name="Path 75" class="cls-11" d="M146.89,604.95l-.369,6.027H91.746l-.376-6.027Z" transform="translate(-29.887 -198.925)"/>
    <path id="Path_76" data-name="Path 76" class="cls-11" d="M146.619,617.68l-.369,6.02H92.536l-.376-6.02Z" transform="translate(-30.147 -203.111)"/>
    <path id="Path_77" data-name="Path 77" class="cls-6" d="M101.78,547.5c24.5,17.732,34.733,45.465,34.733,45.465s-29.532-1.013-54.043-18.746S47.75,528.76,47.75,528.76,77.268,529.767,101.78,547.5Z" transform="translate(-47.25 -213.223)"/>
    <path id="Path_78" data-name="Path 78" class="cls-12" d="M47.72,528.76s30.659,17.014,40.492,31.1,48.291,33.1,48.291,33.1" transform="translate(-47.24 -213.223)"/>
    <path id="Path_79" data-name="Path 79" class="cls-6" d="M137.411,498.462c13.336,9.645,18.914,24.74,18.914,24.74s-16.075-.55-29.418-10.2S108,488.26,108,488.26,124.068,488.81,137.411,498.462Z" transform="translate(-67.062 -199.906)"/>
    <path id="Path_80" data-name="Path 80" class="cls-12" d="M108,488.26s16.685,9.262,22.035,16.927,26.29,18.014,26.29,18.014" transform="translate(-67.062 -199.906)"/>
    <path id="Path_81" data-name="Path 81" class="cls-6" d="M199.755,528.329c-15.323,16.84-18.565,38.848-18.565,38.848s21.605-5.3,36.915-22.149,18.565-38.848,18.565-38.848S215.078,511.489,199.755,528.329Z" transform="translate(-91.128 -205.798)"/>
    <path id="Path_82" data-name="Path 82" class="cls-12" d="M236.683,506.19s-19.961,17.263-25.035,29.156S181.19,567.18,181.19,567.18" transform="translate(-91.128 -205.802)"/>
    <path id="Path_83" data-name="Path 83" class="cls-13" d="M973.108,442.666s-11.081-55.13-6.839-61.99c0,0,.154-6.376-.1-14.5v-.933a20.646,20.646,0,0,0,2.329,1.342,18.847,18.847,0,0,0,12.685,1.638l-3.356-3.738a6.2,6.2,0,0,1-1.819-3.04,6.371,6.371,0,0,1,.725-3.289c3.188-8.054,3.356-18.182-2.785-24.33-5.188-5.168-6.45-11.84-12.081-16.558-4.114-3.457-6.376-8.524-8.511-13.423a75.491,75.491,0,0,1-4.658-12.705c-.805-3.43-1.128-6.98-2.235-10.329s-3.181-6.6-6.423-8.1a24.233,24.233,0,0,1-3.49-1.537c-1.383-.933-2.215-2.45-3.215-3.779-5.081-6.712-22.1-2.759-30.149-.034a16.961,16.961,0,0,0-5.96,3.3l.074-.121c.06-.1.134-.2.2-.3a10.588,10.588,0,0,0-2.255,2.517c-1.175,1.859-1.664,4.027-2.644,6.041-1.181,2.383-7.752,9.034-4.927,11.712a2.38,2.38,0,0,0,.671.43,5.806,5.806,0,0,0,3.356.336l-.121.289A19.617,19.617,0,0,0,890.124,299a20.145,20.145,0,0,0,20.323,19.967,20.517,20.517,0,0,0,6.222-.96c.047.255.087.51.134.765a2.35,2.35,0,0,0,.047.3h0l-.356.5a.681.681,0,0,0-.06-.087L905.9,334.211c-1.611,1.134-10.886,7.846-11.41,12.88-.55,5.51-1.1,11.96-1.1,11.96l-.074,1.383a4.148,4.148,0,0,1-3.356.906c-3.289-.537-3.289,12.081-3.289,12.081s-2.188,2.014-3.692.268-5.477,4.168-5.477,4.168l-24.9,1.074h0l-.57.034-1.342-4.155a1.752,1.752,0,0,0-2.195-1.121,2.007,2.007,0,0,0-.3.128l-.094.054-.174.121-.087.081a1.356,1.356,0,0,0-.134.141l-.081.094-.04.04h0a1.692,1.692,0,0,0-.242,1.5l1.154,3.564c-4.806.966-9.719,3.691-5.712,11.2l-20.31-3.752,6.571,5.517,33.921,7c-.45.805-.154,1.973,1.248,3.618,6.041,7.094,17.048,9.021,21.478,9.517a38.123,38.123,0,0,0,4.356,7.383l-.383,7.067s-11.215,53.868-13.269,56.6a31.927,31.927,0,0,0,2.839-3.738c-3.255,11.068-7.806,26.216-9,28.485-1.919,3.624-3.7,18.289-1.51,19.229.671.289,2.591.148,5.329-.06v1.215l-.121,46.036s.55,28.236-.96,30.928-1.913,8.336-1.913,8.336-6.041,11.135-10.826,15.612a.712.712,0,0,1-.107.094l-.148-1.047s-5.752,7.262-18.477,6.853c0,0-7.658,4.98,3.7,5.249s25.86-.4,25.86-.4,10.128-15.437,18.612-13.423v11.7h2.6V626.735a10.652,10.652,0,0,0,4.624-7,8.511,8.511,0,0,0-3.034-7.873,5.034,5.034,0,0,1-1.658-3.678l-.094.081a7.1,7.1,0,0,0-.087-.725c-.745-6.041-1.678-18.5,1.617-27.726,4.517-12.645,5.886-30.257,2.6-40.74a93.652,93.652,0,0,1-2.611-10.208c-.081-.436-.154-.852-.221-1.242a52.908,52.908,0,0,1,6.665,1.342c7.618,2.1,24.283,2.49,38.512,2.376.033.389.074.8.121,1.208a43.976,43.976,0,0,0,1.584,8.4c1.785,5.369,2.6,29.042,2.6,29.042s2.3,19.464,1.047,27.384c-.671,4.4-1.342,8.826-1.725,13.269v.087s-3.772,10.739-6.531,16.571c-.067.148-.141.3-.208.436a8.724,8.724,0,0,0-2.154.477s-3.7,7.383-7.383,8.6-2.463,5.242,5.88,3.765,20.941-2.685,20.941-2.685l.544-7.531,2.564-3.208-.671,7.51,2.732-.537L957.557,625l4.195-5.249s5.067-4.51-2.463-13.383v.195c-.081-.128-.154-.262-.242-.389v-.04c-1.248-1.933-2.242-5.537-.423-11.934,3.289-11.558,5.2-22.048,5.2-22.048s7.343-28.1-1.483-41.4h.389a22.36,22.36,0,0,1-1.9-5.906q-.067-.362-.121-.745c6.53-.376,12.94-1.557,18.169-4.108C978.86,519.972,975.712,453.284,973.108,442.666ZM890.2,396.153v.134l-1.342.067Zm-4.6.638a1.484,1.484,0,0,0-.6.289,5.961,5.961,0,0,0-1.054,2.759l-2.094-.47s-1.47-.315-3.584-.671l-1-1.007C880.01,397.462,882.869,397.127,885.594,396.791Z" transform="translate(-301.998 -126.062)"/>
    <path id="Path_84" data-name="Path 84" class="cls-14" d="M972.119,742.872l-.8,9.511,2.678-.537-.4-10.316Z" transform="translate(-319.237 -243.836)"/>
    <path id="Path_85" data-name="Path 85" class="cls-15" d="M910.83,706.986c-3.228,9.2-2.316,21.605-1.591,27.632.269,2.228.517,3.584.517,3.584s-4.826,10.994-5.228,11.41-14.2,8.839-14.2,8.839l-9.645,5.631s-9.786-4.289-5.094-5.765a7.12,7.12,0,0,0,2.531-1.725c4.7-4.463,10.6-15.558,10.6-15.558s.4-5.631,1.879-8.309.94-30.82.94-30.82l.114-45.875v-5.98l18.357.134a41.524,41.524,0,0,0,.792,6.041,92.308,92.308,0,0,0,2.557,10.175C916.588,676.863,915.246,694.388,910.83,706.986Z" transform="translate(-319.045 -253.106)"/>
    <path id="Path_86" data-name="Path 86" class="cls-4" d="M909.756,779.641s-4.826,10.994-5.228,11.41-14.2,8.839-14.2,8.839l-9.645,5.631s-9.786-4.289-5.094-5.765a7.122,7.122,0,0,0,2.531-1.725l.416,2.933,3.215-.134,27.518-24.76C909.508,778.285,909.756,779.641,909.756,779.641Z" transform="translate(-319.045 -294.545)"/>
    <path id="Path_87" data-name="Path 87" class="cls-14" d="M901.067,777,873.4,801.927l-3.215.134-.671-4.7s-5.625,7.235-18.122,6.833c0,0-7.5,4.96,3.618,5.228s25.323-.4,25.323-.4,9.92-15.437,18.222-13.424v11.658H901.1V795.491a10.6,10.6,0,0,0,4.524-6.98,8.551,8.551,0,0,0-2.96-7.839,5.054,5.054,0,0,1-1.6-3.671Z" transform="translate(-310.693 -294.851)"/>
    <path id="Path_88" data-name="Path 88" class="cls-15" d="M1011.339,721.077c-1.785,6.376-.812,9.967.409,11.893v.04a21.981,21.981,0,0,1,3.208,7.833l.107.6L1002.473,759.8l-6.833,2.685s-10.987-3.752-8.98-4.826c.5-.262,1.289-1.658,2.188-3.584,2.685-5.806,6.39-16.517,6.39-16.517v-.087c.389-4.423,1.007-8.833,1.691-13.222,1.228-7.9-1.027-27.29-1.027-27.29s-.805-23.578-2.55-28.941a44.253,44.253,0,0,1-1.564-8.349c-.362-3.356-.443-6.121-.443-6.121s7.235-10.068,20.5.805a14.593,14.593,0,0,1,2.772,3.007c9.162,13.034,1.785,41.747,1.785,41.747S1014.554,709.553,1011.339,721.077Z" transform="translate(-355.907 -252.861)"/>
    <path id="Path_89" data-name="Path 89" class="cls-4" d="M1015.094,782.358,1002.5,800.715,995.67,803.4s-10.987-3.752-8.98-4.826c.5-.262,1.289-1.658,2.188-3.584,4.651-.04,7.061,4.389,7.061,4.389l5.893-.94s7.772-15.276,9.517-16.209.268-6.973.268-6.973V773.72c.047.054.087.114.141.168v.04a21.982,21.982,0,0,1,3.208,7.833Z" transform="translate(-355.917 -293.772)"/>
    <path id="Path_90" data-name="Path 90" class="cls-14" d="M991.9,799.966s-3.356-6.161-9.786-3.886c0,0-3.618,7.383-7.235,8.578s-2.41,5.222,5.765,3.752,20.5-2.685,20.5-2.685l.537-7.51,8.309-10.584s4.953-4.49-2.416-13.329v1.537s1.477,6.041-.269,6.973-9.49,16.216-9.49,16.216Z" transform="translate(-351.48 -293.963)"/>
    <path id="Path_91" data-name="Path 91" class="cls-4" d="M918.517,650.164a41.541,41.541,0,0,0,.792,6.041,84.2,84.2,0,0,0-19.169-.195v-5.98Z" transform="translate(-327.538 -253.1)"/>
    <path id="Path_92" data-name="Path 92" class="cls-4" d="M1017.788,659.03s-10.739.523-23.545.631c-.362-3.356-.443-6.121-.443-6.121s7.235-10.068,20.5.805a14.591,14.591,0,0,1,2.772,3.007,16.354,16.354,0,0,0,.718,1.678Z" transform="translate(-358.336 -252.858)"/>
    <path id="Path_93" data-name="Path 93" class="cls-14" d="M983.955,600.223s-47.036,2.275-61.372-1.745-28.545-.537-30.686-1.47-.4-15.544,1.477-19.162,12.189-40.2,12.189-40.2l9.92-51.721,10.45-2.879.738-.208,18.209-5.02,13.343-3.685s26.531,103.582,24.256,111.22a19.558,19.558,0,0,0-.389,8.987A22.429,22.429,0,0,0,983.955,600.223Z" transform="translate(-324.503 -195.259)"/>
    <path id="Path_94" data-name="Path 94" class="cls-16" d="M873.578,439s-9.4,10.068-2.282,15.679,11.792.537,11.792.537Z" transform="translate(-317.178 -183.708)"/>
    <path id="Path_95" data-name="Path 95" class="cls-4" d="M873.578,439s-9.4,10.068-2.282,15.679,11.792.537,11.792.537Z" transform="translate(-317.178 -183.708)"/>
    <path id="Path_96" data-name="Path 96" class="cls-15" d="M979.262,331.389s-1.1,1.047-2.759,2.591c-2.362,2.208-5.859,5.437-8.96,8.141-4.3,3.738-7.839,6.484-6.571,4.141s1.027-6.423.4-10.242c-.047-.255-.087-.51-.134-.758a70.347,70.347,0,0,0-2.074-8.3s6.94-8.967,10.779-12.5c1.43-1.342,2.43-1.893,2.49-.96a31.179,31.179,0,0,0,2.175,6.967c.033.094.067.181.107.275.779,2.014,1.658,4.081,2.43,5.866C978.322,329.349,979.262,331.389,979.262,331.389Z" transform="translate(-346.945 -142.288)"/>
    <path id="Path_97" data-name="Path 97" class="cls-4" d="M974.711,320.748a19.921,19.921,0,0,1-13.343,15.276,69.834,69.834,0,0,0-2.208-9.054s13.068-16.88,13.269-13.464C972.476,314.8,973.5,317.674,974.711,320.748Z" transform="translate(-346.945 -142.292)"/>
    <path id="Path_98" data-name="Path 98" class="cls-4" d="M948.2,352.833l1.691-2.383s1.121,6.833,5.242,3.819,4.322,22.679,4.322,22.679l-4.423,66.131-31.961-1.913.906-31.955,3.618-16.108,8.947-23.417,5.322-7.739Z" transform="translate(-335.078 -154.59)"/>
    <path id="Path_99" data-name="Path 99" class="cls-14" d="M959.464,377.542l-4.027,59.795-.423,6.336-17.82-1.067-.671-.04-13.424-.805.906-31.961,3.618-16.108,8.947-23.417,5.322-7.739,6.336-9.148,1.691-2.376s1.121,6.833,5.242,3.819l.087-.06h0C959.276,352.218,959.464,377.542,959.464,377.542Z" transform="translate(-335.088 -154.774)"/>
    <path id="Path_100" data-name="Path 100" class="cls-3" d="M910.218,406.26s-1.6,3.356-4.826,2.812-3.215,12.081-3.215,12.081-2.141,2.014-3.618.268-5.369,4.155-5.369,4.155L868.8,426.65s10.853,4.96,8.725,19.967c0,0,36.848-2.282,38.056-5.765S910.218,406.26,910.218,406.26Z" transform="translate(-317.232 -172.942)"/>
    <path id="Path_101" data-name="Path 101" class="cls-17" d="M910.218,406.26s-1.6,3.356-4.826,2.812-3.215,12.081-3.215,12.081-2.141,2.014-3.618.268-5.369,4.155-5.369,4.155L868.8,426.65s10.853,4.96,8.725,19.967c0,0,36.848-2.282,38.056-5.765S910.218,406.26,910.218,406.26Z" transform="translate(-317.232 -172.942)"/>
    <path id="Path_102" data-name="Path 102" class="cls-3" d="M777.66,389.76l6.43,5.49,52.929,11.121-6.564-6.7Z" transform="translate(-255.557 -128.165)"/>
    <path id="Path_103" data-name="Path 103" class="cls-3" d="M941.887,354.076c-.879,1.342-3.4,8.215-5.5,14.215-1.752,5-3.215,9.4-3.215,9.4s-3.416,22.243-5.161,26.263-.8,19.7-.8,19.7l-6.5,38.72s-2.946,19.967-7.5,31.894c-4.49,11.739-9.49,17.242-9.645,17.417,2.014-2.725,12.987-56.379,12.987-56.379l3.624-67.668s.53-6.43,1.067-11.927,11.41-13,11.41-13L943.142,347.8C944.2,349.209,943.491,351.666,941.887,354.076Z" transform="translate(-328.666 -153.719)"/>
    <path id="Path_104" data-name="Path 104" class="cls-15" d="M908.015,479.448s-15.437-.671-22.914-9.651,17.283-3.584,17.283-3.584l6.437,1.477Z" transform="translate(-322.13 -192.127)"/>
    <path id="Path_105" data-name="Path 105" class="cls-4" d="M999.636,546.655a19.558,19.558,0,0,0-.389,8.987c-16.84,1.195-34.854-3.356-34.854-3.356-3.356,3.087-12.2,7.638-12.2,7.638l-4.819-59.734c-3.081-8.054-4.289-50.251-4.289-50.251s.275-2.208.671-5.517a.636.636,0,0,1,.034-.248c1.2-9.242,3.584-26.592,4.752-28.934,1.611-3.222-4.953-11.792-4.953-11.792l2.987-25.471.362-3.074c6.3-2.812,11.121-11.793,11.121-11.793l3.7-6.49h0C965.8,354.035,966,379.359,966,379.359l-4.027,59.795,13.343-3.685S1001.912,539.018,999.636,546.655Z" transform="translate(-341.661 -156.558)"/>
    <path id="Path_106" data-name="Path 106" class="cls-3" d="M1017.314,542.946c-18.357,9.115-51.721.671-51.721.671-3.356,3.087-12.2,7.638-12.2,7.638l-4.826-59.734c-3.074-8.054-4.282-50.251-4.282-50.251s3.879-31.485,5.49-34.7c.47-.94.242-2.336-.315-3.839a48.579,48.579,0,0,1-2.94-22.478l1.289-10.947.356-3.067c6.3-2.819,11.128-11.8,11.128-11.8l3.356-5.879,6.175-10.833,2.926-5.128.5.45,3.792,3.436,4.027,3.356c5.255,4.43,14.336,12.229,19.021,17,4.121,4.2,5.423,20.545,5.8,32.847.248,8.1.1,14.45.1,14.45-4.154,6.839,6.712,61.748,6.712,61.748C1014.233,476.5,1017.314,542.946,1017.314,542.946Z" transform="translate(-342.056 -148.721)"/>
    <path id="Path_107" data-name="Path 107" class="cls-17" d="M972.917,364.476s-12.6,23.981-11.135,33.1,5.624,19.431,3.617,21.84a7.416,7.416,0,0,1-5.9,2.946c-2.014.134-7.383,3.886-7.383,4.289s-4.96.4-9.4,2.282a58.505,58.505,0,0,1-10.987,2.946s-12.752-.4-13.94.805-2.41,8.437.134,14.2,5.369,10.068,7.5,10.853,15.679-3.752,26.666-4.826,22.914-9.779,22.914-9.779,13.135-4.7,15.437-12.6-2.812-51.318-2.812-51.318S983.77,358.979,972.917,364.476Z" transform="translate(-332.895 -158.891)"/>
    <path id="Path_108" data-name="Path 108" class="cls-17" d="M970.526,361.477s-12.6,23.988-11.121,33.1,5.624,19.43,3.611,21.847a7.383,7.383,0,0,1-5.893,2.947c-2.013.134-7.383,3.886-7.383,4.289s-4.96.4-9.4,2.275a59.081,59.081,0,0,1-10.987,2.946s-12.752-.4-13.934.805-2.416,8.443.134,14.2,5.369,10.068,7.5,10.853,15.679-3.752,26.666-4.819,22.914-9.786,22.914-9.786,13.128-4.7,15.4-12.591-2.812-51.325-2.812-51.325S981.379,355.987,970.526,361.477Z" transform="translate(-332.116 -157.905)"/>
    <path id="Path_109" data-name="Path 109" class="cls-3" d="M972.333,362.681s-12.6,23.988-11.121,33.1,5.625,19.43,3.618,21.84a7.383,7.383,0,0,1-5.9,2.953c-2.013.134-7.383,3.886-7.383,4.282s-4.953.4-9.4,2.282a58.639,58.639,0,0,1-10.987,2.947s-12.752-.4-13.94.805-2.41,8.443.134,14.2,5.369,10.068,7.5,10.853,15.679-3.752,26.666-4.826,22.914-9.779,22.914-9.779,13.135-4.7,15.437-12.6S987.1,377.42,987.1,377.42,983.18,357.217,972.333,362.681Z" transform="translate(-332.708 -158.304)"/>
    <path id="Path_110" data-name="Path 110" class="cls-4" d="M996.011,458.706s-10.068-2.013-6.564,1.342,3.483,6.3,7.772,6.161S996.011,458.706,996.011,458.706Z" transform="translate(-356.661 -189.991)"/>
    <path id="Path_111" data-name="Path 111" class="cls-4" d="M1024.358,566.58s-4.551,3.081,4.155,10.182S1024.358,566.58,1024.358,566.58Z" transform="translate(-367.993 -225.659)"/>
    <path id="Path_112" data-name="Path 112" class="cls-4" d="M1011.9,604.31c0,.4-1.611,14.766,4.416,18.357S1011.9,604.31,1011.9,604.31Z" transform="translate(-364.225 -238.066)"/>
    <path id="Path_113" data-name="Path 113" class="cls-15" d="M863.816,436.59c-4.859.168-15.357,1.651-9.913,11.806,4.812,8.987,12.9,2.98,17.451-1.577A17.149,17.149,0,0,0,863.816,436.59Z" transform="translate(-311.832 -182.915)"/>
    <path id="Path_114" data-name="Path 114" class="cls-15" d="M881.39,451Z" transform="translate(-321.372 -187.654)"/>
    <path id="Path_115" data-name="Path 115" class="cls-15" d="M880.74,451.608l.2-.208Z" transform="translate(-321.159 -187.785)"/>
    <path id="Path_116" data-name="Path 116" class="cls-4" d="M981.8,340.445c-5.155,3.524-9.477,6.5-10.323,7.114-2.309,1.712-6.712,11.759-9.551,16.887-2.262,4.128-9.611,5.188-12.383,5.45l.356-3.067c6.3-2.819,11.128-11.8,11.128-11.8l12.457-21.84,4.289,3.9Z" transform="translate(-343.782 -148.915)"/>
    <path id="Path_117" data-name="Path 117" class="cls-18" d="M981.8,339.845c-5.155,3.524-9.477,6.5-10.323,7.121-2.309,1.7-6.712,11.752-9.551,16.88-2.262,4.128-9.611,5.188-12.383,5.45l.356-3.067c6.3-2.819,11.128-11.8,11.128-11.8l12.457-21.84,4.289,3.886S979.38,337.8,981.8,339.845Z" transform="translate(-343.782 -148.717)"/>
    <path id="Path_118" data-name="Path 118" class="cls-15" d="M963.313,308.168a19.907,19.907,0,1,1-16.923-19.679,19.874,19.874,0,0,1,16.923,19.679Z" transform="translate(-335.218 -134.141)"/>
    <path id="Path_119" data-name="Path 119" class="cls-4" d="M998.761,375.117a17.693,17.693,0,0,1-6.423-6.9c-1.121-2.215-1.866-4.772-3.779-6.343-1.725-1.409-4.027-1.752-6.175-2.383-7.061-2.087-12.98-8.531-13.2-15.887-.107-3.463.973-6.92.483-10.35a11.465,11.465,0,0,0-2.242-5.336,18.385,18.385,0,0,0-1.94-2.087c-.94-.886-1.926-1.745-2.785-2.685a10.418,10.418,0,0,1-1.41-1.913,9.209,9.209,0,0,1-.772-1.779c-1.342-4.108-.121-8.98-1.6-13.135l-.081-.228c-.557-1.477-1.691-2.953-3.269-3.067s-2.926,1.195-4.43,1.779c-3.148,1.222-6.544-.859-9.168-2.98s-5.584-4.544-8.92-4.074c-2.208.315-3.953,1.819-5.987,2.6a8.4,8.4,0,0,1-1.416.409,19.9,19.9,0,0,1,38.371,7.417,19.7,19.7,0,0,1-.436,4.155c.034.094.067.181.107.275.779,2.014,1.658,4.081,2.43,5.866l3.792,3.436,4.027,3.356c5.255,4.43,14.336,12.229,19.021,17C997.083,346.478,998.372,362.815,998.761,375.117Z" transform="translate(-335.926 -134.141)"/>
    <path id="Path_120" data-name="Path 120" class="cls-19" d="M924.711,280.6c.96-1.953,1.436-4.141,2.584-5.994,1.685-2.685,4.624-4.4,7.645-5.443,7.886-2.718,24.552-6.665,29.532,0a14.532,14.532,0,0,0,3.148,3.759,23.373,23.373,0,0,0,3.416,1.537c3.175,1.49,5.2,4.739,6.282,8.054s1.4,6.873,2.195,10.289a75.671,75.671,0,0,0,4.564,12.665c2.087,4.873,4.3,9.927,8.329,13.37,5.5,4.7,6.712,11.35,11.813,16.5,6.041,6.121,5.846,16.222,2.732,24.243a6.658,6.658,0,0,0-.712,3.275,6.423,6.423,0,0,0,1.779,3.034l3.3,3.725a18.568,18.568,0,0,1-20.29-9.356c-1.121-2.215-1.866-4.765-3.786-6.343-1.718-1.409-4.027-1.745-6.168-2.376-7.061-2.094-12.981-8.544-13.2-15.9-.107-3.457.973-6.913.483-10.336a11.41,11.41,0,0,0-2.248-5.369c-1.846-2.409-4.631-4.027-6.135-6.712-2.544-4.49-.611-10.323-2.443-15.142-.564-1.477-1.691-2.953-3.269-3.067s-2.926,1.195-4.436,1.779c-3.141,1.222-6.537-.852-9.162-2.98s-5.584-4.544-8.927-4.067c-2.208.309-3.946,1.812-5.98,2.6-1.5.577-4.551,1.094-5.866-.174C917.113,289.616,923.55,282.992,924.711,280.6Z" transform="translate(-333.806 -126.657)"/>
    <path id="Path_121" data-name="Path 121" class="cls-4" d="M992.825,361.248c-1.128-2.215-1.866-4.765-3.785-6.336-1.718-1.409-4.027-1.752-6.175-2.383-7.054-2.087-12.974-8.537-13.2-15.893-.107-3.457.973-6.92.49-10.343a11.478,11.478,0,0,0-2.248-5.336c-1.853-2.409-4.638-4.027-6.135-6.712-2.544-4.483-.611-10.316-2.45-15.142-.557-1.47-1.691-2.946-3.262-3.067s-2.933,1.2-4.436,1.785c-3.141,1.222-6.544-.859-9.161-2.98s-5.591-4.544-8.927-4.074c-2.208.315-3.953,1.819-5.98,2.6-1.5.577-4.557,1.1-5.873-.168-2.765-2.685,3.671-9.3,4.826-11.672.96-1.96,1.436-4.141,2.591-5.994.06-.1.128-.2.195-.3a10.658,10.658,0,0,0-2.208,2.51c-1.148,1.852-1.624,4.027-2.584,5.994-1.161,2.376-7.6,9.007-4.826,11.672,1.342,1.275,4.363.752,5.866.175,2.013-.785,3.772-2.289,5.98-2.6,3.356-.477,6.309,1.946,8.927,4.067s6.04,4.2,9.168,2.98c1.5-.584,2.819-1.9,4.43-1.779s2.685,1.591,3.269,3.067c1.832,4.819-.1,10.651,2.443,15.142,1.5,2.638,4.289,4.289,6.135,6.712a11.41,11.41,0,0,1,2.248,5.369c.49,3.423-.591,6.88-.483,10.336.222,7.383,6.141,13.806,13.2,15.9,2.128.631,4.45.967,6.168,2.376,1.926,1.577,2.685,4.128,3.785,6.343a18.568,18.568,0,0,0,20.29,9.356l-1.557-1.758A18.769,18.769,0,0,1,992.825,361.248Z" transform="translate(-333.735 -129.856)"/>
    <path id="Path_122" data-name="Path 122" class="cls-4" d="M955.529,354.643c-.879,1.342-3.4,8.215-5.5,14.215-1.966-.765-3.752-5.645-3.752-5.645L956.764,348.3C957.838,349.777,957.133,352.226,955.529,354.643Z" transform="translate(-342.71 -153.883)"/>
    <path id="Path_123" data-name="Path 123" class="cls-18" d="M956.129,354.046c-.879,1.342-3.4,8.215-5.5,14.215-1.967-.758-3.752-5.645-3.752-5.645l10.484-14.907C958.438,349.18,957.733,351.636,956.129,354.046Z" transform="translate(-342.907 -153.689)"/>
    <path id="Path_124" data-name="Path 124" class="cls-20" d="M866.952,449.236l-5.812-18.33a1.711,1.711,0,0,1,1.114-2.154h0a1.718,1.718,0,0,1,2.148,1.114l5.812,18.31-.577,3.832Z" transform="translate(-314.687 -180.312)"/>
    <path id="Path_125" data-name="Path 125" class="cls-21" d="M861.826,429.308h0a1.718,1.718,0,0,1,2.154,1.114l5.813,18.31-.436,2.873.423.443.577-3.832-5.846-18.31a1.718,1.718,0,0,0-2.148-1.114h0a1.718,1.718,0,0,0-.893.671,2.332,2.332,0,0,1,.356-.154Z" transform="translate(-314.822 -180.325)"/>
    <path id="Path_126" data-name="Path 126" class="cls-22" d="M822.6,400.174l3.262-1.034-.477,3.141-.1.691-.953-.993Z" transform="translate(-270.334 -131.25)"/>
    <path id="Path_127" data-name="Path 127" class="cls-23" d="M872.42,461.892a.672.672,0,0,1,.208-.175.3.3,0,0,1,.315,0,.833.833,0,0,1,.114.181.577.577,0,0,0,.416.275l-.1.671Z" transform="translate(-318.423 -191.163)"/>
    <path id="Path_128" data-name="Path 128" class="cls-15" d="M861.13,441.7s11.658-.067,8.913,4.893-7.034,5.557-7.034,5.557Z" transform="translate(-314.71 -184.595)"/>
    <path id="Path_129" data-name="Path 129" class="cls-6" d="M677.96,110.05h-.5a57.408,57.408,0,0,0-47.929,26.236A57.408,57.408,0,0,0,581.6,110.05h-.5a57.05,57.05,0,0,0-56.506,57.016c0,18.665,8.175,45.15,24.115,66.943,30.371,41.526,80.823,77.856,80.823,77.856s50.452-36.324,80.816-77.856c15.947-21.793,24.115-48.278,24.115-66.943a57.05,57.05,0,0,0-56.5-57.016Zm-7.2,127.154a11.309,11.309,0,0,1-10.517-7.262H648.267a3.785,3.785,0,0,1-3.564-2.577l-3.678-11.081L629.387,256.95a3.765,3.765,0,0,1-3.611,2.718h-.235a3.718,3.718,0,0,1-3.49-3.114l-11.994-72.138L601.292,227.1a3.738,3.738,0,0,1-3.631,2.839H580.794a3.752,3.752,0,1,1,0-7.5h13.913l12.417-57.392a3.765,3.765,0,0,1,7.383.309l12.249,73.588,10.43-36.384a3.691,3.691,0,0,1,3.51-2.685h.074a3.745,3.745,0,0,1,3.557,2.577l6.651,20.008h9.115a11.249,11.249,0,1,1,10.685,14.766Z" transform="translate(-204.047 -75.54)"/>
  </g>
</svg>
